<!--?xml version="1.0" encoding="utf-8"?-->
<!-- Generator: Adobe Illustrator 19.1.1, SVG Export Plug-In . SVG Version: 6.00 Build 0)  -->
<svg version="1.1" id="_x31_0" xmlns="http://www.w3.org/2000/svg" xmlns:xlink="http://www.w3.org/1999/xlink" x="0px" y="0px" viewBox="0 0 512 512" style="width: 256px; height: 256px; opacity: 1;" xml:space="preserve">
<style type="text/css">
	.st0{fill:#374149;}
</style>
<g>
	<polygon class="st0" points="512,45.826 511.996,45.826 511.996,45.662 388.028,45.662 388.028,83.087 474.465,83.087 
		474.57,83.087 474.57,428.967 388.716,428.967 388.189,428.967 388.189,428.967 388.028,428.967 388.028,466.393 511.996,466.393 
		511.996,48.389 	" style="fill: rgb(75, 75, 75);"></polygon>
	<polygon class="st0" points="437.149,120.509 388.49,120.509 388.189,120.509 388.189,120.509 388.028,120.509 388.028,153.208 
		437.149,153.208 	" style="fill: rgb(75, 75, 75);"></polygon>
	<rect x="388.028" y="358.847" class="st0" width="49.121" height="32.699" style="fill: rgb(75, 75, 75);"></rect>
	<polygon class="st0" points="437.149,299.262 388.49,299.262 388.189,299.262 388.189,299.262 388.028,299.262 388.028,331.961 
		437.149,331.961 	" style="fill: rgb(75, 75, 75);"></polygon>
	<polygon class="st0" points="437.149,239.68 388.341,239.68 388.189,239.676 388.189,239.68 388.028,239.68 388.028,272.379 
		437.149,272.379 	" style="fill: rgb(75, 75, 75);"></polygon>
	<rect x="388.028" y="180.094" class="st0" width="49.121" height="32.699" style="fill: rgb(75, 75, 75);"></rect>
	<path class="st0" d="M365.759,6.682v-0.16L0,47.4v417.196l365.759,40.882V57.365l0.015-50.687L365.759,6.682z M138.566,263.676
		l0.078-0.293l0.078,0.336l23.438-88.238l27.202-1.039l13.149,47.769l11.336,41.71l0.066-0.285l0.086,0.324l21.519-91.362
		l31.519-1.234l9.191-0.316L231.362,343.48l-30.801-1.121l-24.882-87.762l-24.316,85.843l-28.641-1.121L90.522,205.673
		l-6.488-27.074l35.164-1.359l10.351,45.851L138.566,263.676z" style="fill: rgb(75, 75, 75);"></path>
</g>
</svg>
